/* XPM */
static char *_14721f49a2842938e93d081d1255672OhLoDxcDe7V0v92j[] = {
/* columns rows colors chars-per-pixel */
"90 79 252 2 ",
"   c None",
".  c #1A1C04",
"X  c #261C04",
"o  c #371D01",
"O  c #2E1D1A",
"+  c #152602",
"@  c #152A03",
"#  c #1A2B04",
"$  c #1A250C",
"%  c #15290C",
"&  c #1B2A0B",
"*  c #182508",
"=  c #1B3303",
"-  c #1D320B",
";  c #143304",
":  c #192B13",
">  c #0C2603",
",  c #272806",
"<  c #382705",
"1  c #26360A",
"2  c #37360A",
"3  c #272814",
"4  c #3A2717",
"5  c #2B3C13",
"6  c #263913",
"7  c #3A3C13",
"8  c #383A16",
"9  c #321F24",
"0  c #2B2727",
"q  c #3B2C2D",
"w  c #362928",
"e  c #362D35",
"r  c #3C3433",
"t  c #3B3637",
"y  c #352F30",
"u  c #471D03",
"i  c #551C01",
"p  c #411F13",
"a  c #641D00",
"s  c #462606",
"d  c #582605",
"f  c #45340A",
"g  c #58340B",
"h  c #482918",
"j  c #542B19",
"k  c #473617",
"l  c #583619",
"z  c #682802",
"x  c #752901",
"c  c #693407",
"v  c #773709",
"b  c #683717",
"n  c #763B14",
"m  c #432A26",
"M  c #493627",
"N  c #573A26",
"B  c #433C3B",
"V  c #473735",
"C  c #523C37",
"Z  c #673C27",
"A  c #6E3F29",
"S  c #2B480D",
"D  c #34460E",
"F  c #2C4414",
"G  c #2D4A14",
"H  c #2E4A19",
"J  c #2B4417",
"K  c #334414",
"L  c #3D4214",
"P  c #324A14",
"I  c #33451A",
"U  c #324B1A",
"Y  c #3C481A",
"T  c #335019",
"R  c #384621",
"E  c #395121",
"W  c #4F441A",
"Q  c #79431A",
"!  c #714617",
"~  c #584428",
"^  c #48423C",
"/  c #584738",
"(  c #564D31",
")  c #674629",
"_  c #774827",
"`  c #654935",
"'  c #764B36",
"]  c #685538",
"[  c #765839",
"{  c #79532B",
"}  c #7C643B",
"|  c #6C633A",
" . c #393840",
".. c #463C42",
"X. c #503B40",
"o. c #4B4343",
"O. c #4B4749",
"+. c #544B4B",
"@. c #5A4D4C",
"#. c #564744",
"$. c #59514A",
"%. c #544F53",
"&. c #4D5359",
"*. c #555355",
"=. c #5B5454",
"-. c #54555A",
";. c #5A555A",
":. c #5A5A5A",
">. c #4C4C54",
",. c #624C49",
"<. c #655648",
"1. c #785B47",
"2. c #645C5C",
"3. c #665856",
"4. c #745E56",
"5. c #786447",
"6. c #6A615A",
"7. c #74665A",
"8. c #7A7154",
"9. c #575B62",
"0. c #4E5A66",
"q. c #665D62",
"w. c #705D63",
"e. c #646264",
"r. c #6B6463",
"t. c #69696B",
"y. c #736D6C",
"u. c #746867",
"i. c #79726C",
"p. c #776D73",
"a. c #787578",
"s. c #6C6D72",
"d. c #873A08",
"f. c #8C380B",
"g. c #A23E0D",
"h. c #9A460A",
"j. c #874718",
"k. c #994717",
"l. c #924D13",
"z. c #A6460A",
"x. c #B44C08",
"c. c #BC540D",
"v. c #B6540D",
"b. c #A44C16",
"n. c #AA5419",
"m. c #BB5717",
"M. c #B64D15",
"N. c #854B26",
"B. c #885228",
"V. c #985828",
"C. c #875837",
"Z. c #945C37",
"A. c #914C22",
"S. c #A95B27",
"D. c #AF5724",
"F. c #85663B",
"G. c #99653C",
"H. c #98632E",
"J. c #A66839",
"K. c #B36B38",
"L. c #B6733B",
"P. c #AE6D2C",
"I. c #C3540D",
"U. c #C75407",
"Y. c #C35512",
"T. c #C85617",
"R. c #CC5209",
"E. c #C36122",
"W. c #835D46",
"Q. c #876847",
"!. c #996947",
"~. c #88724C",
"^. c #97744A",
"/. c #886B57",
"(. c #8C7657",
"). c #977856",
"_. c #9A6E52",
"`. c #A66D47",
"'. c #AA7348",
"]. c #B67747",
"[. c #A97956",
"{. c #B37952",
"}. c #89776A",
"|. c #957B67",
" X c #867B7A",
".X c #8D746A",
"XX c #C47D48",
"oX c #B98458",
"OX c #B88C56",
"+X c #978777",
"@X c #93836E",
"#X c #B89967",
"$X c #B18E6E",
"%X c #B9A37B",
"&X c #9E8159",
"*X c #C98448",
"=X c #C88A57",
"-X c #DA975A",
";X c #D18F55",
":X c #E39E5D",
">X c #E49B59",
",X c #DEA35D",
"<X c #E5A25E",
"1X c #E9A35E",
"2X c #C9956A",
"3X c #D89B68",
"4X c #C99974",
"5X c #D69D73",
"6X c #CC8C63",
"7X c #E29E67",
"8X c #E59E70",
"9X c #DCA369",
"0X c #DAA476",
"qX c #C7A572",
"wX c #E3A263",
"eX c #EAA463",
"rX c #E3A36B",
"tX c #E8A769",
"yX c #E4A675",
"uX c #F1AF6D",
"iX c #C9843F",
"pX c #7A7E83",
"aX c #867C81",
"sX c #7E8386",
"dX c #8B8687",
"fX c #958987",
"gX c #878B94",
"hX c #999596",
"jX c #98908F",
"kX c #A59A98",
"lX c #AB9686",
"zX c #B3A593",
"xX c #B5ABAA",
"cX c #BAB1AD",
"vX c #BBB5B7",
"bX c #AFA9AD",
"nX c #9C9BA4",
"mX c #D6A785",
"MX c #D0B38A",
"NX c #C4BAB9",
"BX c #C8B7AE",
"VX c #E3B090",
"CX c #DCC298",
"ZX c #E8C997",
"AX c #E6C78E",
"SX c #CDC3BD",
"DX c #EACAA9",
"FX c #CAC5C5",
"GX c #D6CECE",
"HX c #E7D8D1",
"JX c #E3E2E8",
"KX c #BEBCC1",
/* pixels */
"                                                              V }.                                                                                                                  ",
"                                                              3.7.                                                                                                                  ",
"                                                              ,. XjX                                                                                                                ",
"                                                              M lXkX                              <.                                                                                ",
"                                                              4.fX                              7.+X                                                                                ",
"                                                            5.zX+X                            +X$X|.                                                                                ",
"                                                            ~.CX@X                            1.MX~.                                                                                ",
"                                                          +X).ZX@XzX                          ~ CX^.                                                                                ",
"                                                          (.#XZX%X&X                        5.(.AX#X[                                                                               ",
"                                                          [ #XAXMXQ.$X          vXbXvXvX  lX] CXAX#X~                                                                               ",
"                                                          5.#XAXZXMX[ 1.+XfXr.y.a.gXaXaX7.M +XDXAXqX) }.                                                                            ",
"                                                          5.#XqXAXDXMX%X` 4 <. XfXdXhXkXkXu.M (.%X%X~ 7.                                                                            ",
"                                                          5.$X#XqXAXZXZXVX(.M 7.p.a.a.a.i.i.,.N ] (.h kX                                                                            ",
"                                                          +X5.#XqXqXAXAXZXMXM <.q.e.;.+.^ B C V M h q BX                                                                            ",
"                                                            ] F.#X#XqXqXMX%Xh M V o.O.%.e.2.=.2.,.,.3.=.fX                                                                          ",
"                                                              < ) $X#X&X) k / 3.u.y.r.t.s.a.y.p.cX2.u.y.2.xX                                                                        ",
"                                                              BX4 h M M 4.i.y.p.:.dXxXw *.*.+.O.p...=.e.O.i.                                                                        ",
"                                                              xXV #.3.kXi.3.y.=.+.$.3.M $.<./ C V #.@.o.o.o.                                                                        ",
"                                                            p.O.6.i.^ jX XV #.3.@.C h h j l b Z Z j m V r hX                                                                        ",
"                                                          aXq.r.t.:.$.V #.#.` h h ) W._.`.`.'.`.`.C.p X r                                                                           ",
"                                                          ;.xXdXt *.@./ M N ' 2X0X0X4X2X2X3X5X5X6X].b h                                 ;...O                                       ",
"                                                          #.3.$.C V N ) W.F.oX9X9X].j.l.k.S.S.K.L.].!.1.                            r.r.dXjXw                                       ",
"                                                        }.h C N l _ G.Z.! ^.H.].wXP.d.k.b.z.g.k.f.j.'.`                           #.kXvXjX+.=.                                      ",
"                                                      N N W.j u B.].'.z B.Z.6X6X3XP.h.n.n.n.D.n.k.j.n j /.                      O.cXNXfX@.r                                         ",
"                                                    ~ s [.5XoXj.A.].Z.i Z.b b 5X0X].v j.v n Q v v j.z Z._ ]                   o.hXFXjXq q w           / / +X            kXB 2.      ",
"                                                  <.$X!.Q 0X3XJ.j.K.N.z C._ b 4X5X3XV.z i u d d v B.d Q C.l                 2. XGXbXB V ^ q jX      h ) ` N k           a.dXr.a.    ",
"                                              zX` |.4X4Xn =XXXL.V.'.B.i G.XX{.3XyX-X*XS.j.j.J.N.' l d s h /                 ^ HXFXs.0 @.@.o.o.y.  BXj ' _ C.) ]         q.u.cXr.    ",
"                                          $.3 4 f ~.4XmXV.j.].K.L.].J.a J.;X=XL.7XtX-XXXL.=X8X3XmXDXCX' j lX              6.xXHXhX .o.3.@.=.+.B C C j Z A A ' 1.        =.@.vXkXu.  ",
"                                    7.M 8 8 8 8 2 2 < F.^.c J.].K.K.S.x x d.x z V.3X9X;XK.;X7X8X3XyXmX0XC.                2.JXvXa.e *.*.*.*.;.2.V m h h j j j .XHX    hXr r i.NXr.NX",
"                                ~ j < 4 k 7 7 Y Y W 2 < < g g Q j.k.S.k.f.g.h.S.j.J.=X2XA.].;XK.=X3X6X2X[                 a.JXbX2.B %.:.*.*.%.2.q ,.4.,.C M M C =.+.B r B w 2.NXfXfX",
"                              M s d g f s < 2 7 W L L L W , 2 f s c S.n.v.c.c.m.b.d.n c d n j.n j.`.{.C.`               kXkXFXnXC X.*.-.>.9.t.O.B u.e.e.y.r.#.w +.+.%.=.=.B B NXxX3.",
"                          /.h ~.4X2X2X4X#X^.! < 2 7 Y Y 5 5 5 7 k g V.m.c.U.U.I.m.b.v i j.v x v z a i i )               fXcXvXhXV #.;.&.&.&.p.o.o.t.&.0.&.s.=.q :.*.*.*.*.t B cXNX#.",
"                        ) b '.9X9XrXrX7X9X9X3XOXb s 7 U Y 1 6 R 8 g V.m.U.U.U.U.m.g.x d.S.b.z.b.k.f.g.S.N.Q.            dXNXvXfXV +.-.&.&.9.u.q +.t.0.0.0.t.^ V e.*.-.;.*...B cXFX#.",
"                <.` Z u Q ].-X<XwXwXtX7XwXwXeX7XoX) 7 U D 5 1 R 8 f A.m.U.U.U.I.M.x d.S.S.n.n.b.k.f.f.b.V.Z lX          dXvXvXdXq +.9.&.-.e.3.q e.9.>.0.9.e.w +.:.-.-.-.*.B o.cXGX@.",
"            5.) Q.Q._ n `.=XrXtX<XwXtXwX,X,XeXtX0X} 2 U K K , 8 L f l.m.Y.R.T.m.b.x V.H.j.v x x z a a a n j j           dXbXKXdXt +.;.-.t.s.@.q r.:.;.:.e.r.w @.9.9.*.-.*.e *.NXFX#.",
"          l C.2X5X=Xj.G.=X3XrX-XeX<XwXwX<X,X:X7X5XF.2 U Y K , 7 L 2 Q n.T.I.T.D.h.x V.n z a z x d.f.d.v z d j 1.        hXhXvXjXe 2.u.r.t.2.m V 6.i.r.2.r.+.O u.9.-.;.*.*.y a.SXNX+.",
"        l !.0XtXwX-XK.L.*XrX9X<X1X<XwXwXwX<XeXrX0X{ 2 D P D 2 2 W f c n.T.I.m.D.j.z x a x f.h.b.z.D.b.k.l.z i $X|.        7.GXkXV #.C C ^ o.V m M / <.7.6.^ o.e.-.*.;.*.O.t hXFXbXu.",
"      ] Q.9X9X:X:X;X*X*X-XwXuX<X1X<X<XwXwXwXeXrX2Xg D S S U 2 < 7 f d b.Y.Y.c.m.l.z z d.g.M.m.c.I.x.E.D.n.n.z $X/.        3.SXkXO.w q kX    HXM N j j N M 0 +.t.q.=.*.=.t +.bXGXdXjX",
"    ) ) 4X9XuX:X1X1X>X:XeX-XeX<X1X1XwXwXwXwXrX9XF.< D S G Y 7 , 7 7 s j.m.T.Y.m.h.x f.M.m.Y.T.U.R.R.U.I.c.n.z b Z +X        u.SX@Xr  X        h ) [ Z j ,.,.V 2.r.2.@.+.t a.NXFXy.FX",
"  ) { oX0X9X-XeX<X1XeX:X:XuX>X1X<X<XwXwXrXyX0XqX< f P S P F L , 5 L < c D.T.T.c.v.z.x.c.c.Y.I.R.U.R.U.R.U.m.d._ { )         V kXjXB         .X) _ C.C.Z .X    q +.r.2.B o.bXGXbXi.  ",
"  _ `.9XrX3XtXwXwXwXwX-X*X*X>X:XeXwXwXyX3X0X2Xl < L U F G U K 5 1 7 f d k.M.T.Y.c.c.c.Y.m.Y.Y.Y.Y.I.Y.T.I.m.d._ 2XC.|.        +.jX+.        N _ Q _ C.l       cXo.o.+.r dXNXGX2.    ",
"  N.=X9X9XtX<XwX3XwX7X*XK.L.*X*X-XwXrXrXyX2X{ < 1 K U G H U F K 1 Y f s j.M.M.T.I.c.c.c.c.c.Y.Y.m.m.Y.Y.c.n.v B.rX6Xj           +.u.        h _ j.Q { `         y.q q r.cXGXt.fX    ",
"N.G.6XrX,X<XeXeXwXtXtX-X].L.L.].].=X3X5XoX_ < , 1 F U H H U G G 1 8 k < c k.z.Y.I.I.Y.Y.Y.Y.Y.Y.c.m.I.T.m.b.z `.7X3X_.4.                    j N.j.N.A `         @.o.r.cXFXy.t.      ",
"b '.=XrX<X<XeXwXtX-X7XwX].l.j.V.H.J.V.Q s o < # # F U H H H G G 5 1 7 f s v k.x.c.I.Y.Y.Y.Y.I.I.m.m.I.Y.n.d.z 3XtX7X4Xh ,.                1.' n A.j.b 1.        #.fXNXNX2.r.        ",
"b `.6X9X-XeX:X:X7XrXrXwXwX;XJ.v c d i d < X . & # 1 H H I U G S G 1 5 k s g j.h.x.x.c.c.c.c.v.v.x.v.x.z.l.z d 5X7X3X0XZ O w V +X    /.W.' l A N.A.Q b +X      kXu.kXjX2.dX          ",
"b '.-X3X;X*X:XtXwXwXwXwXrX3X*X].J.v N.! , 3 $ * # = J U I I G S S S , 8 8 f g d.h.z.z.z.z.z.h.h.h.h.h.d.c d d {.-X3X0X_ / r w m M ` [.mX[.b b N.j.Q s           O.r.+X              ",
"n '.=X9X;Xn.*XrXrXrXwX:XwX-XXXL.J.z G.l . + : : # # 6 H I K P S S D 2 , 8 8 < g n f.j.k.k.f.d.Q n n c d f s b '.].*X6X_ C w q #./ N {.6X'.b Q B.B.Q s                               ",
"N.G.=X9X9Xl.V.=X9XrX7XwX:X*XK.K.z Q [.s , + : $ # + = H I K P S P D Y 1 1 I 2 < o u d d d i u u s < < k M k _ ].L.L.].g 4.r 0 y.4.` G.`.6XQ Q B.N.c [                               ",
"  Z.{.3XyX=XQ A.].=X;X*XXXL.J.c d J.{.s , # * * # # # - 5 K U P G G H F 5 1 2 k f f s s h s f < 2 7 K I Y 2 Z.].L.L.Z.N u.O.0 a.a.V l c `.n n n z b $X                              ",
"  _ `.2X4X0XoXQ c B.J.J.`.Q g g d H.'.s , # * & # + * & - 6 F I U U E J U 1 , 2 f f ~.(.] k 8 2 5 U U F 1 g `.].].Z.s C w.%.0 jXgX3.W._.G.Q 6X'.J.`.).lX                            ",
"  h h Z C.[.4X$X!.c d j h h / / s B.`.s , & * & & & & $ + + # = 5 J U F T K 7 2 f (.&X).zX] 2 2 I F 5 , < { ].K.V.c s C aX..e jXhXdX` l b _ N.n {.mXmX@X                            ",
"4.M ,./ M h s u h h 4 4 #.@.B 4 s ! G.o , & * & + & : & & % # # + # - 6 F 5 W < ~ ).s o [ ~.2 W 5 1 # , g J.L.n.z Q < #.O.e O.hXjXhXlXQ.b b '.`.].oX4X$X                            ",
".Xm ,.r. XfXi.7.@.#.2.q.-.e 0 O j ) { o , % $ & & # $ $ % % % # # # + # + # , k Q.).g u l } 2 2 , * , < B.L.P.S.J.!.4 2.X.e t.a.gXjXjXM l _ d Q V.V.`.Q.                            ",
"  w q e >.*.;.u.O.+.>. .e e e V N ) ) o * % & & % # & : - - % + + + + + = 5 , ~.CXMX$X^.).g < L , $ , s J.L.P.L.'.A C u.t e s.a.a.a. X4 ' 4Xd 2X=XJ.N._.                            ",
"  V y 0 0 e ..e t e e e O.+.o.$.C N l < * % : % + # 6 I I H J 5 5 5 J 1 F K 1 | $X#XmX^.~ W < L 6 & X s '.L.L.L.G.j 4...e ;.a.s.a.a.3.h ' _ z 5X3X3XoX$X                            ",
"  6.B %.t.:...:.;.;.s.p.a.e.=.$./ N k < $ % : + # 1 K I I F I U I U I U U K 7 < o [ MXZX#X~.2 K 6 , X h '.].L.'.) h 3.e O.q.a.a.a.y.V N ' `.].;XrX0XmX/.                            ",
"    r ;.y.dXjXhXgXa.p.a.a.r.;.=./ h h X $ : % # = D U U U U U U U U H G G U K 7 2 [ %XCX%X| 2 K J # X j !.[.[._ h C m 9 o.q.s.a.p.i.h l b c l.S.J.oX/.                              ",
"    o.o.y.a.hXhXhXsXs.s.a.t.9.*./ 4 o X 3 : % % = S P P P G P G U G G T H G U L 2 2 ~ ] ] L 1 U F # , h Q.1.) < C V 9 q +.;.-.:.:.3.u Z.{.B.].V.j._ 4.                              ",
"    y.O.2.a.gXnXgXgXpXa.a.s.0.-./ j N o $ : % % = S D D S S P G U G G F S F P K L 7 7 7 7 5 K U 1 # , <.HX  M 4 V q m C =.*.&.-.=.M u Z.n J.3X5X{.).                                ",
"      r @.p.gXgXnXgXa.s.p.t.-.+.M N Q.< . : : + 1 D D D S S P G G F F = = F G 1 1 Y Y Y K K T F F , . 7.       Xr q 9 9 y o.>.*.=.h d Z.G.{.2X0XoXlX                                ",
"      =.B t.a.gXgXpXp.u.6.#.V M N j _.< 3 : % @ 1 P P D P G U F 1 - @ @ = G G = = 5 F U U F U J 6 + 3 }.               Xe.:.O.w O o C.z n _ Z._.1.                                  ",
"        q B 3.3.3.<./ N h h l ' _._ !.s 3 % % % F P P P P G F 5 - + + - F U F = = F G P G P P U 6 & . +X                      xX.XN _ B.N.n u ) /.                                  ",
"        jXm p h u u s g { !.oX2X4XC.{ s X % % % F P K U U J 6 - & + 1 I I R H = > ; G F F G P K 6 * 3                             N ' _ B.b h                                       ",
"          h W.!.`.'.'.{.6X5X7X0X2X_ u o , % % > F P F K U J - + + & 5 R I I U = ; ; 6 G U U S I 6 : .                             ` N ) ) l .X                                      ",
"        |.h { 2X9X3X9X0X0X3X3X4X!.< o , $ > % ; H F T K K 1 & + + F 6 U U F U 6 @ @ = I J = @ 6 3 3 $                                 3.3.                                          ",
"        1._ c J.3X=X=X3XoXV.j.Q b < < . $ : % > H G F E 1 + & & - F G G F U K 5 . , # R 6 & & 3 3 . 3                                                                               ",
"        g J.V.z v c z c x v h.S.H.s o < . + # + I E U 5 # - * % = G F U F U Y 5 , , . 3 3 . $ 3 3 3 0                                                                               ",
"        g B.{.G.G.G.Z.Z.J.L.iXL.L.{ g < < , , , 8 8 8 1 , * $ & J I I T K 7 7 2 2 ~ 8.] / ^ 3 3 3 3 ^                                                                               ",
"          /.5.[ ' 1.1.1.{ _ B.H.J.J.G.F.C.[ l f < < < < , X 3 X 8 8 8 2 2 7 W ] ~.~.5.(         i.=.                                                                                ",
"                              Q.C.B.C.Q.Q.N s s j l ~ N k M 4 }.@X@X8 M W | 5.(.(.Q.~ (                                                                                             ",
"                                          @XM N ~ ) [ ] C C #.      6.M ( 1.[ ) ) ) } l ).] ] /                                                                                     ",
"                                          +XM ( ] } ) ~ ~ }.SX        4 M < l ) F.^.Q.f ) (.(.5.q                                                                                   ",
"                                          <.~ 1.).^.F.) l N ] 7.        ( k ) Q.).Q.{ [ (.Q.] ~ M                                                                                   ",
"                                          M ~ [ ).~.F.F.Q.~.Q.1./         N ~ Q.).^.~.~.[ ~ N k                                                                                     ",
"                                          4 ~ [ 5.Q.F.F.} } } 5.] q       ] N ] (.~.] ( M 4 <.                                                                                      ",
"                                          4 M N N ~ ~ ~ ~ W W W M 4         k N ~ ~ k 4 ~                                                                                           ",
"                                            ,.,./ / / ~ / ( ( ( <.            <.` <.1.                                                                                              ",
"                                                                                                                                                                                    ",
"                                                                                                                                                                                    "
};
