/* XPM */
static char *_4223894fbc442599fbcc091cb68bf20RPFLA78LG37IhpZC[] = {
/* columns rows colors chars-per-pixel */
"90 82 250 2 ",
"   c None",
".  c #1A1D04",
"X  c #281B05",
"o  c #371A07",
"O  c #371F15",
"+  c #281C15",
"@  c #0D2904",
"#  c #1B2403",
"$  c #1B2B05",
"%  c #1B250A",
"&  c #1B2A0C",
"*  c #142807",
"=  c #1B3408",
"-  c #182C12",
";  c #242401",
":  c #272806",
">  c #382806",
",  c #28360B",
"<  c #36370B",
"1  c #252513",
"2  c #392718",
"3  c #2A3C14",
"4  c #263912",
"5  c #343C13",
"6  c #383816",
"7  c #2C2627",
"8  c #372A29",
"9  c #3B332A",
"0  c #383435",
"q  c #312E34",
"w  c #481A03",
"e  c #591900",
"r  c #461C10",
"t  c #661B00",
"y  c #432203",
"u  c #472809",
"i  c #572705",
"p  c #463309",
"a  c #452B1B",
"s  c #472916",
"d  c #552C15",
"f  c #483517",
"g  c #56371A",
"h  c #58350A",
"j  c #682803",
"k  c #752900",
"l  c #68340A",
"z  c #793407",
"x  c #683819",
"c  c #773C18",
"v  c #632E12",
"b  c #432C24",
"n  c #493628",
"m  c #573826",
"M  c #433B3C",
"N  c #473937",
"B  c #553C34",
"V  c #532F21",
"C  c #673A25",
"Z  c #783E26",
"A  c #2A460D",
"S  c #2D4514",
"D  c #2D4B13",
"F  c #2A4618",
"G  c #334414",
"H  c #394315",
"J  c #324B14",
"K  c #33451A",
"L  c #3B441B",
"P  c #324A1A",
"I  c #3A4A1B",
"U  c #364812",
"Y  c #364922",
"T  c #3F4331",
"R  c #4D441B",
"E  c #79451A",
"W  c #6E4413",
"Q  c #58462B",
"!  c #4C403A",
"~  c #57463A",
"^  c #4F4E2E",
"/  c #684728",
"(  c #774726",
")  c #785329",
"_  c #674736",
"`  c #794C34",
"'  c #685536",
"]  c #785637",
"[  c #68532D",
"{  c #78633C",
"}  c #3C3C42",
"|  c #443C42",
" . c #4C4343",
".. c #484547",
"X. c #544C4C",
"o. c #574947",
"O. c #5B524C",
"+. c #4C4E54",
"@. c #544E53",
"#. c #555254",
"$. c #5B5453",
"%. c #55555B",
"&. c #5C595C",
"*. c #59575A",
"=. c #4E5259",
"-. c #685548",
";. c #745946",
":. c #635B5C",
">. c #665955",
",. c #6D554C",
"<. c #796645",
"1. c #6C625D",
"2. c #786559",
"3. c #7D7147",
"4. c #585B63",
"5. c #655D64",
"6. c #6C6463",
"7. c #686669",
"8. c #736C6B",
"9. c #766A67",
"0. c #78716C",
"q. c #6D6C74",
"w. c #6D7378",
"e. c #777577",
"r. c #736F6F",
"t. c #5F6064",
"y. c #3B4141",
"u. c #873808",
"i. c #863D15",
"p. c #973B08",
"a. c #984409",
"s. c #864619",
"d. c #984615",
"f. c #96531A",
"g. c #8C4E11",
"h. c #A6460A",
"j. c #BB540C",
"k. c #A64B16",
"l. c #A85418",
"z. c #B45314",
"x. c #BB5615",
"c. c #B64D10",
"v. c #864C27",
"b. c #895529",
"n. c #975828",
"m. c #885836",
"M. c #965B37",
"N. c #8A4E30",
"B. c #A75728",
"V. c #B65925",
"C. c #A35E32",
"Z. c #87643B",
"A. c #98633A",
"S. c #9D602C",
"D. c #A86939",
"F. c #B16C39",
"G. c #B9763C",
"H. c #AB6A2D",
"J. c #9C6B1C",
"K. c #C3550C",
"L. c #C4560A",
"P. c #C35413",
"I. c #C75515",
"U. c #CA4F13",
"Y. c #C87B2A",
"T. c #C76C1F",
"R. c #8D5C45",
"E. c #866946",
"W. c #986746",
"Q. c #87734A",
"!. c #96754C",
"~. c #856957",
"^. c #8A7655",
"/. c #967555",
"(. c #966B53",
"). c #A66C47",
"_. c #B36D45",
"`. c #A97448",
"'. c #B67648",
"]. c #A87855",
"[. c #B67754",
"{. c #887568",
"}. c #877B78",
"|. c #8F766A",
" X c #C27E4E",
".X c #7E807F",
"XX c #99815B",
"oX c #B98759",
"OX c #AF8456",
"+X c #94847A",
"@X c #8B8277",
"#X c #BA8A67",
"$X c #B89669",
"%X c #AF9272",
"&X c #C8844C",
"*X c #C68857",
"=X c #CB935B",
"-X c #D7975B",
";X c #D58D51",
":X c #E59C5B",
">X c #E5A25C",
",X c #E9A45D",
"<X c #C58D63",
"1X c #C79767",
"2X c #D79A67",
"3X c #C79874",
"4X c #D59D75",
"5X c #E49D64",
"6X c #E69E66",
"7X c #DDA36C",
"8X c #DBA367",
"9X c #C8A57A",
"0X c #D8A475",
"qX c #D5B276",
"wX c #E3A364",
"eX c #EBA363",
"rX c #E3A36C",
"tX c #EAA669",
"yX c #E5A774",
"uX c #F2A66B",
"iX c #DDA25E",
"pX c #777982",
"aX c #717380",
"sX c #837E88",
"dX c #7E828B",
"fX c #898587",
"gX c #958A89",
"hX c #958E93",
"jX c #989598",
"kX c #999187",
"lX c #A59998",
"zX c #AF9B8A",
"xX c #B0A292",
"cX c #B4AAAB",
"vX c #BAB5B5",
"bX c #B3ACAC",
"nX c #A49EA0",
"mX c #CEB090",
"MX c #E1BE8F",
"NX c #C8BBB5",
"BX c #E8C998",
"VX c #F2D09A",
"CX c #E9CAA2",
"ZX c #D7C4A7",
"AX c #CCC4C4",
"SX c #D4CCC8",
"DX c #D8D4D5",
"FX c #D7CED1",
"GX c #E9E3EA",
"HX c #BEBEC0",
/* pixels */
"                                                      :.lX                                                                                                                          ",
"                                                      0.~                                                                                                                           ",
"                                                      lX{.-.                                gX                                                                                      ",
"                                                      +XxX-.                              {.{.                                                                                      ",
"                                                      ,.xX,.                            xX+X{.                                                                                      ",
"                                                      <.MX-.                            kXzX<.                                                                                      ",
"                                                    |.XXmX;.                            {.mXXX%X                                                                                    ",
"                                                    /.$XMX'                             ;.BX9Xp                                                                                     ",
"                                                    E.9XBX{                           -./.CXqX] |.                                                                                  ",
"                                                  xX{ 9XBX$X<.              nXjXbXAX9.Q CXBX9X$X~                                                                                   ",
"                                                  zXQ.$XVXMXQ.^ xX    }.M X.8.r.:.o.n ;.mXBX1X$Xn                                                                                   ",
"                                                  xXE.$XqXBXCX%X<.Q n ~ kXcXbXcXvXnX@X-.m E.$X^.~                                                                                   ",
"                                                    ~.9X1XMXBXBXBX%X<.a >.0.}.e.e.8.1.O.~ f ] a >.                                                                                  ",
"                                                    ~.XX1X1XBXBXBXCXmX;.o.6.5.*...0 0 9 9 n a n N 9.                                                                                ",
"                                                    ~.] 1X1X1X8XqXVXBX^.n 8 7 0 ..7.6.e.8.0.>.9.0.1.0.                                                                              ",
"                                                      ;.` oXoX1X$X$X^.Q n O.8.}.8.8.r.6.&.hXgXM r.1.N >.                                                                            ",
"                                                        _ m Z.Q.<.Q ~ >.9.0.:.cX6.X.*.#.X.#.....%.X.N >.                                                                            ",
"                                                          B s m -.9.>.9.6.$.X.O.! ~ o.~ ~ B n N  .X.9 gX                                                                            ",
"                                                        cXN >.1.2.NX>.@.%.*.X.o.m d i v x ( ) g 2 7 8                                                                               ",
"                                                      0.0 r.7.r.N gXN X.$.! 2 o C W.`._._._.'.`.r o B                                                                               ",
"                                                      X.fX5.q.#.X.~ n m m ` $X3X0X2X2X7X2XyX2X_.W./                                                                                 ",
"                                                    }.>.AXM X.$.~ b _ (.3X0X7X*Xn.S.S.n.C.C.D.D.D.W.                                                                                ",
"                                                    }.B ,.N ~ a C M.) ( A.4X7X'.k p.a.d.p.i.d.j ).` mX                                                                              ",
"                                                    B a Q m d m.).E E <X`.[.yXF.z V.B.B.B.B.n.e W.x _ 2.                                  >.o.>. .                                  ",
"                                                  {.m d W i A.`.).w A.E '.2X7X'.k g.z s.s.c i.e s.s.A.( m                             M X.lXcXlX*.                                  ",
"                                                -.m ].oXb.E S.`.A.i A.i j 2XrX-Xg.i i w w i j M.l j s.m.d                         jX .hXNXcX}.M fX                                  ",
"                                              _ E.E '.rX2XC.s.'.M.j v.C.s.;X:X6X&XC.j j N.v.b.m.x i w v |.                      fX:.vXAXhXO.X.0                                     ",
"                                            ;./.mXA.f.2X;XF.B._.M.e _. X&X&XtX2X2X[.).A.1X<X<X0XmX3XN.d                       gX8.AXAXgXM 8 8 8.                                    ",
"                                          _ ] 3X3XoXs.&XF._.'._.'.e v.<X[.c *X0X0X=X1Xn.2XyX2XrXyX0X3Xx                       $.NXAXlXM 0 ..0 :.        n _ -.                      ",
"                                        9 6 > / $X3X) E _.'._.'.B.z t j j z j '.4X0X*Xn.2X&X&X5X7X2X#Xg                     &.jXDXbXX.q #.&...0 0.    -.m ] g s >.          hX8     ",
"                                      ^ , 5 H : : f g u m.M.b.E l.k.a.a.a.V.l.z D.'.N.j M.n.s.n._.).` B                     X.DXvXe.7 ..%.@.&.X.N }.mXs / ` ( ] 2           :.9.:.  ",
"                                2.~ 6 5 H H G H R 5 < > > u u i k.x.j.j.j.x.x.d.z t t j l l j k k z v _                   M bXFXnXM | %.#.&.%.#.O.n B s g C ( / b           N lX0.}.",
"                            _ > w u > > 6 f H G K Y L : > f p u k.j.K.j.j.I.P.x.i.e a.k.d.p.d.a.u.i.B.v._                 N GXvX}.8 @.%.+.%.%.&.$.8 N n b s m V O.        -.o.+XcXN ",
"                          _ w ( ).].OX!.Q > > R K S G G : H L > d.P.L.j.K.I.P.z.z z z.x.V.B.l.d.d.u.k.n.C {.              8.GXcX>.N @.%.4.4.=.7. .M 6.6.>.B b O 9.AX    lX8 N 9.NX:.",
"                        -./ #X0X7X7X0X0X0XoX) > H G G I # H L > z V.j.L.P.P.j.h.t d.V.c.k.d.u.u.t e t c _ ~             6.cXFXhXN o.#.=.4.=.4.7.0 X.9.6.8.6.>.! 7 N 7 8 0 8 9 X.vXgX",
"                      ,._ 3X0X8XwXwXtXwX2XyX1Xb.> U J J ; 5 G < i V.x.L.P.x.j.p.k C.k.u.k t t t z i.k j i o {.            NXNXgX9 o.%.%.=.4.7.@.8 6.:.#.&.7.r...7 $.$.$.O.$.M $.bXvX",
"                    ~.C 3X2XiX>X>X,X>X:X:XuX5X=Xp < J S , , G 5 y B.x.L.P.P.P.p.z s.k k k u.p.d.d.B.k.a.i.e m             SXvXfX0 X.#.%.%.7.7.M M 8.4.%.%.4.t.q ..6.&.X.X.$...#.bXDX",
"                +Xm m ].1XwX>X,XtX-X,XeX:X6XuXyX) < G P 5 : P H > s.x.I.P.I.x.p.j j j u.a.k.V.V.V.x.c.z.V.z ` ;.          SXbXr.0 $.*.*.5.6.O.7 $.6.4.%.4.q.+.0 &.*.$.*.*.#.} %.vXDX",
"              f d y m.oXwX,X:X>X:XwXwX>XeXeX5X2X{ < H H 6 : J H > i z.I.I.I.x.p.e j z f.l.x.I.I.P.K.L.K.x.a.N.]           bXvXe.M :.7.8.0.9.! 9 6.6.%.+.4.7.M  .8.#.+.#.#.#.0 7.HXFX",
"          ~.d ] W.i `.=X>X>XeXeXtXrX8X8XwXtXrX0XR < H G R , , G 6 y k.P.P.P.P.c.u.i.f.l.x.P.U.U.U.L.L.L.j.z.k ].-.        fXvXe.0 |  . .M ! 2 N O.8.7.4.7.5.N X.5.%.%.#.#.#.q fXAXAX",
"        ;.C OX<Xn.n.G.;X>X>XeXtX5XrX8X8XrXrX7X$X> H K G L 5 , L 6 > u.z.j.L.K.j.h.k.z.j.K.K.K.P.P.I.P.P.x.l.k C 2         | AXfXM 8 e.gXfX+X2.2 n n >.9.6.X.N 5.&.+.%.&.#.....jXDXhX",
"      |.( <X2X2XF.D.G.-X,X,XwX5XuXwX-X8XrX7X0XZ.< H P K I 5 , 5 R > l k.x.j.K.K.c.x.L.L.K.I.K.K.I.P.P.x.x.k.j ( s         | vXjX>.8         |.m g m a B ~ N o.8.*.4.%.#.@.q &.bXDX6.",
"      / #XyX6XtX&X X&X-XwXwXrXrX6X,XwXwXtXrXOXp < J D P P G < < L < i u.l.j.P.U.U.U.L.L.L.K.L.L.K.K.P.x.V.d.z [.E.;.        :.cX>.}.        B / ` ( / s b 8 #.q.5.+.&.*...7 fXAXAX .",
"    ~.!.2X:XeX:XuXwXwXwXwXwXrX5X,XeXwXwX6X2X) p H D D D P K 5 : G H y l d.z.I.U.U.U.L.L.K.K.L.L.I.P.I.x.l.u.g.2XmXg          .fXO.          _ / v.v.( d +XkX0 %.q.@.*.X.0 #.bXFXhX9.",
"    / OXrXeX:XeX:X:X:X-X-X-X6XwX>X>X5XyX4X`.y < U D D D D J 5 , 5 H > h s.d.z.I.I.I.I.j.x.j.j.K.K.j.c.z.d.k f.-X0X(.2.        M 1.        {./ ( s.v.c g     }...*.8.#.| 0 jXAXAX6.AX",
"  _ ( =XrXwXeX:XeXeX:X&XG.'.&X*X-X2XrX2X].g ; ; G J D D D J H 5 : L 6 > h i.k.k.c.j.x.z.z.z.c.c.h.h.h.d.z i n.-X2X#X~ vX                  ' x m.v.v.x ~.      e.0 X.X.0 }.HXSX@X@X  ",
"R.` W.8X8XwX5XwXeX,X:X&XG.F.G.'.'.'.`.m.f X 1 # 4 G J D D D J G > 6 L < u l E a.a.h.h.h.h.h.p.p.d.i.i.l i y E =XyX3X> N 1.              %X/ ( ( ( ( s         lX8 9 9 e.bXDXgX8.    ",
"/ W.oX8X8X8XrXwX,X,X,X-X XC.n.s.s.l i y X 1 % * : S J D D D D H 6 : 3 L f > i W g.a.d.d.d.s.i.c l i i y f f W *X2X#Xa N 9 b {.    2.2.] ] l v.( ( / 2.        :. .! e.vXDXjX$.      ",
"` (.1XwXwXwXwXwX>X>X>XwX2X&Xn.s.c c y ; % * & # $ , S J J D D J J , : 6 6 f u y i l l h i i o u > > < < R p W '.oXW.a N 2 9 8 O ` 3X0X[.l E E M.( g            .:.lXvXFX8.0         ",
"` !.*XwXtX:XwXwX:XtX:XwXrXrXyX*X_.).> # * * % 1 % , 3 S D D S S D J 5 < 5 L 6 f u u u > u f f X < H J A 6 u m._.A.i ;.N 7 X.o.m m.*X7Xs.j v.N.v.c ]         fX9.cXnXjX:.e.          ",
"] W.*X6X:XuX5XwXeX,X:XtXwXwXwX'._.m.> ; & & * % % $ = 3 S K P P A D H , , 3 6 f f p / [ f f > 6 L L D A < d W.W.( g 0.M q 7.6._ m.D.1Xv.( c n.i.v |.        1.>.8.e.e.              ",
"W.A. X-XeX&XwXtXtX>XeX>XwXwX;XG.).d > ; & - * & % % $ $ 4 3 F P P J I K 3 4 , > f XX%XmX<.> 6 5 Y 3 = , X y c v o -.8...} pXe.o.x l W.).i ( v.c C             lX                    ",
"  N.'.-XeX'.F.=X8X-XwXwXwX-XY.F.N.u o X % % - - & & % * & & 4 4 S S S Y Y 3 6 > <.E.u / %X' 5 Y K = @ # > ( R.W.a 0.r.q } fXhX2.` v.W.W.E v.i l /                                   ",
"  x _.-X2X-Xf.f.oX-X-X-X=X'.F.M.u s o X 1 - - * & & & % * * & $ $ = $ 4 = 4 6 f /.W y y ] [ 5 K $ @ = ; ) )._.R.2 e.4.0 7.jXhX{.` W.W.x ].m.).).]                                   ",
"  ] A.'.rX2X*Xg.z n.D.).).W.N.u f Q 2 + 1 % - @ * & & & & $ $ # # $ @ * @ $ > { 9XZ.x x / f 6 L , # $ ; A.[._.C b 6.7 0 w.hXhXkX~.d i c A.x <X0X3X^.                                ",
"  %X` `.<XyX4X2X_.c l x g s s m ! 9 b + 1 % - @ * * & $ * * $ $ # $ * $ = 5 f mXMX9X9XW.m.u < G G : # : m._.W.d >.@.7 ..w.fXgXjX|.V c l b.b.[.<X3X/.                                ",
"    ' E.].3X3X4X3X<XE.m a b -.o.8 1 N O + % * @ @ $ = 4 S 4 4 4 , 3 3 3 F G < { !.#XCX] ( / < H G , $ ; Z.).x _ :.0 7 5.w.w..XfX,.V ( A.E E b._.[.m.                                ",
"    |.u u d s s d s s n -.9. .7 7 q  .8 + 1 - * * 4 3 K P S S G K K K Y P K : p p %XCXMX$XQ.f G I , $ . ] ` d ,.8 7 | e.q.w.w.8.B s ].oXv.*XF.z M./.                                ",
"    |.O ~ 2.2.0.{.}.+X1.O.O.8 ! y.+.O.N + 1 # * $ A S P J D J J P K K 4 @ $ , < > Q.%XmXQ.< < I K 4 * 1 2 u ~ n | 0 7.q.pXw.e.$.n ` m.l D.7X7X<X(                                   ",
"    gXb -.>.6.e.6.6.:.0 8 7 N X.4.%.O.o.O X . : $ S J D D D J S 4 = * * @ = K 5 < ; < [ [ < H A P 4 * . 2 B B 7 7 } 7.q.w.w.r.o.s x A.A.=X2X2X0X/.                                  ",
"      ~ B 8 7 q } 0 7 q ..+.r.r.7.%.#.o.2 O X : , K P D D D D A $ $ @ = A F I 3 ; : < 5 < G A P D 4 & 1 9 N + + M $.*.4.4.7.$.b _ m.i s.n.oX<X#X~.                                  ",
"      @X2 8 7 0 | @.q.pXq.w.w.e.w.4.#.O.n V f X , K P D J J A = @ $ $ , F F F 3 . ; G L H J J A A 3 & . 7 7 7 9 o.O.*.+.4.#.N a (.#Xj '.f.W ].R.|.                                  ",
"      zX2 n X.r.fXhXhXhXpXpXw.w.aX7.#.O.B m ;.> , K P D J J S , $ $ , 5 Y P S $ : # K P D A I A J , # 1 bX  >.1 2 2 M *.X.O.a C N.i F.tX2XZ.u {.                                    ",
"      <.g > o.6.e.hXjXjXhXaXpXw.w.q.$.-.g u (.Q < L K S P P P J K S L G P F F * # : K P P D D D D , # 1         +X! N 7 9 B r C M.n.&X-X0XXXzX                                      ",
"      [ `.W u -.q.sXhXjXjXdXw.w.aX7.~ m d i m.E.> 6 K Y P D J S P I S J P K , # : # 5 K J S D D S , $ %               }.,.s C Z l s.b.).#X;.                                        ",
"      b.H.J.l Q 5.aXfXhXhXfXw.q.&.! d g A.A.( (.> 6 K F F , 3 P P P K I I 5 : # . 5 5 K , = S S S , # %                   d / ` v.c v C ] {.                                        ",
"      v.Y.G.f.u o.7.e.fXe.w.q.X.m u E ).1X1Xh h < I P D A $ $ , S D G H 6 < > ; > X 6 5 # * 3 P K , # 1                   s _ R.N.( d C |.                                          ",
"    ].g.Y.Y.G.E s -.:.1.>.o.8 2 i A.*X7X0X1Xp > < J A D S $ # : 5 H < < < [ E.E.g > f < : $ , K K : % 1                     s m ` _ o                                               ",
"    (.n.Y.Y.Y.D.x > b a u d d A.'.2X6X7X0X!.p : G J D D S ; . ; ; < R ' ^.XXZ.h / !.u X X : : Y 6 1 . 1                       2.~ ~                                                 ",
"    ;.E f.f.J.D.E.s o / W.).oX<XrX2X2X).Z.g X ; , G G J 5 : : : f [ Q.^.E.] [ h W Z.y u f 2 : ^ ^ T 9  .                                                                            ",
"      %X%X/.E.;.,.{.,.' oX2XrX7X0X1Xm.u u 2 X 1 6 6 , < < 6 n n m Q _ / W / Z.Z.h p / ' <.Q 2 ~ SX                                                                                  ",
"                      ;.) 4X<X( / g _       gX}.>.~ 9 2 > R ' -.a a m / ] !.!.[ / E.^.Q.' Q 2 N                                                                                     ",
"                        ;.u O o.{.                      ~ 2 f a V s u ] /.!.E.[ ^.^.{ Q n > {.                                                                                      ",
"                                                        +Xa Q ' ' / u / E./.XXQ.E.[ Q 6 ~                                                                                           ",
"                                                        }.2 Q 3.XXE.> g { 3.3.[ g f B {.                                                                                            ",
"                                                          2 Q { Q.{ > f ' [ g p g ^.                                                                                                ",
"                                                          2.f Q Q.3.Q s g s u f _                                                                                                   ",
"                                                            n f ' ' Q o > s m ~ f                                                                                                   ",
"                                                              m f V m s a b n n n                                                                                                   ",
"                                                                {.~.~.~.{.9.                                                                                                        ",
"                                                                                                                                                                                    ",
"                                                                                                                                                                                    "
};
