/* XPM */
static char *_8e7918c47bf4ab1e6a14db5ca207cbftofotcg8OhNW0xbV[] = {
/* columns rows colors chars-per-pixel */
"90 79 249 2 ",
"   c None",
".  c #1A1D0A",
"X  c #281D05",
"o  c #381B04",
"O  c #2A1C18",
"+  c #152502",
"@  c #1B2503",
"#  c #152B03",
"$  c #1B2A04",
"%  c #1B250B",
"&  c #142B0B",
"*  c #1B2B0A",
"=  c #15250B",
"-  c #1B3208",
";  c #192911",
":  c #0F2601",
">  c #232302",
",  c #272807",
"<  c #382806",
"1  c #23350B",
"2  c #27380B",
"3  c #37360A",
"4  c #272715",
"5  c #392816",
"6  c #2B3C13",
"7  c #2B3615",
"8  c #383A15",
"9  c #2D2626",
"0  c #3B2D2C",
"q  c #352928",
"w  c #3A3628",
"e  c #3C3333",
"r  c #383538",
"t  c #312C32",
"y  c #2A1F23",
"u  c #471B01",
"i  c #561C00",
"p  c #6B1D00",
"a  c #462705",
"s  c #562705",
"d  c #46350B",
"f  c #462918",
"g  c #552C16",
"h  c #493819",
"j  c #563519",
"k  c #58370C",
"l  c #642401",
"z  c #6C2C01",
"x  c #672A05",
"c  c #742A00",
"v  c #693308",
"b  c #773608",
"n  c #673816",
"m  c #793B16",
"M  c #452D27",
"N  c #483628",
"B  c #573A27",
"V  c #463937",
"C  c #553D35",
"Z  c #412A30",
"A  c #653C25",
"S  c #723F24",
"D  c #2D470E",
"F  c #324A0E",
"G  c #36440D",
"H  c #2C4414",
"J  c #2D4B14",
"K  c #2D4419",
"L  c #2E491A",
"P  c #274414",
"I  c #344414",
"U  c #3A4415",
"Y  c #324A13",
"T  c #344519",
"R  c #334A1A",
"E  c #3B451A",
"W  c #384722",
"Q  c #3E403F",
"!  c #58431A",
"~  c #444219",
"^  c #67451C",
"/  c #7A4419",
"(  c #594428",
")  c #48413B",
"_  c #594738",
"`  c #534C2C",
"'  c #674628",
"]  c #784827",
"[  c #654937",
"{  c #764C35",
"}  c #69553A",
"|  c #77583A",
" . c #705328",
".. c #78653A",
"X. c #6C6133",
"o. c #443D41",
"O. c #4B4243",
"+. c #4B4849",
"@. c #544B4B",
"#. c #574A47",
"$. c #5C534A",
"%. c #4C4D52",
"&. c #564E52",
"*. c #4E5459",
"=. c #535355",
"-. c #5B5354",
";. c #5D5A5C",
":. c #56575A",
">. c #614944",
",. c #665548",
"<. c #755A46",
"1. c #665B59",
"2. c #745D55",
"3. c #796346",
"4. c #68615C",
"5. c #776658",
"6. c #545861",
"7. c #635E62",
"8. c #5C626B",
"9. c #6C6464",
"0. c #6A6768",
"q. c #746C6C",
"w. c #756A66",
"e. c #77706D",
"r. c #6C6C73",
"t. c #766E72",
"y. c #787477",
"u. c #6A727B",
"i. c #3E3E40",
"p. c #883A09",
"a. c #8B3A0C",
"s. c #89430D",
"d. c #884718",
"f. c #964714",
"g. c #994A0F",
"h. c #A6490B",
"j. c #BC540B",
"k. c #BB550B",
"l. c #A64C16",
"z. c #AA5318",
"x. c #BD5614",
"c. c #B75717",
"v. c #B74C11",
"b. c #864B26",
"n. c #8A5429",
"m. c #965527",
"M. c #875837",
"N. c #955936",
"B. c #904D27",
"V. c #A95728",
"C. c #B45927",
"Z. c #85643B",
"A. c #996538",
"S. c #88602D",
"D. c #A86938",
"F. c #B8763B",
"G. c #AE6A32",
"H. c #9D671D",
"J. c #C5540C",
"K. c #C8550C",
"L. c #C35413",
"P. c #C55616",
"I. c #C24F0E",
"U. c #C15D22",
"Y. c #876846",
"T. c #9A6846",
"R. c #8B754C",
"E. c #967349",
"W. c #856A54",
"Q. c #8B7555",
"!. c #987857",
"~. c #966D53",
"^. c #A76D45",
"/. c #A97447",
"(. c #B77846",
"). c #A67754",
"_. c #B47A55",
"`. c #B16E51",
"'. c #887768",
"]. c #937B67",
"[. c #867A76",
"{. c #8B766C",
"}. c #95654B",
"|. c #C27D4C",
" X c #B88758",
".X c #B48F5A",
"XX c #978678",
"oX c #928271",
"OX c #A78467",
"+X c #B48665",
"@X c #B79769",
"#X c #B19476",
"$X c #B19C6D",
"%X c #C9864C",
"&X c #C78956",
"*X c #D8985B",
"=X c #D28F58",
"-X c #E59D5B",
";X c #DDA45C",
":X c #E4A25D",
">X c #EAA35D",
",X c #CA9466",
"<X c #DD9C63",
"1X c #D79A68",
"2X c #CB9A77",
"3X c #D49D74",
"4X c #CA8D65",
"5X c #E39D63",
"6X c #E59E68",
"7X c #E29F72",
"8X c #DCA368",
"9X c #D9A376",
"0X c #C7A472",
"qX c #E4A364",
"wX c #EAA363",
"eX c #E4A46B",
"rX c #E9A569",
"tX c #E3A574",
"yX c #F3A565",
"uX c #767B85",
"iX c #677685",
"pX c #817F84",
"aX c #7C858E",
"sX c #898484",
"dX c #958B89",
"fX c #9A918C",
"gX c #989395",
"hX c #8D8F97",
"jX c #A49998",
"kX c #AA9586",
"lX c #A8A19B",
"zX c #B7A48E",
"xX c #929AA5",
"cX c #B5AAA9",
"vX c #B9B5B3",
"bX c #B2ADAB",
"nX c #A59FA1",
"mX c #D1B18C",
"MX c #E4BC90",
"NX c #C6BABA",
"BX c #C5B1A4",
"VX c #DFC294",
"CX c #EBC996",
"ZX c #C9C1B8",
"AX c #ECC9A5",
"SX c #D4CBC8",
"DX c #D4CFCC",
"FX c #EDE4DD",
"GX c #BCB9C0",
/* pixels */
"                                                                                                                  dXN                                                               ",
"                                                                                                                  1.$.                                                              ",
"                                                                                                                lX{.,.                                                              ",
"                                                                                ,.XX                            lXfXN                                                               ",
"                                                                                ].Q.                              XX3.kX                                                            ",
"                                                                                Q.#XXX                            XXzX}                                                             ",
"                                                                                Z.0X3.                            oXmXW.                                                            ",
"                                                                                E.VX'                             OXVXOX].                                                          ",
"                                                                              <..XCX!.<.                        OX+XCX@X5.                                                          ",
"                                                                              N 0XMXVX[ dX    bXbXvX          kXY.mXCX@X3.                                                          ",
"                                                                            dX_ 0XMXAXkXV 9.9.sXdXy.q.w.XXXX5.| 0XCXMX$X3.                                                          ",
"                                                                            w.( #X0X].N 4.lXcXfXgXsX[.1.5 ( #XMXCXCX0X@X3.                                                          ",
"                                                                            cX5 ].| N 1.q.q.e.e.q.y.w.M W.VXAXAXVX0X@X@X5.                                                          ",
"                                                                            vXM 5 f N O.O.r @.-.;.0.$.5 zXAXCXMX9X,X@XY.XX                                                          ",
"                                                                          fX4.$.,.>.9.;.=.;.&.@.+.t 0 M #XmX0X,X.X,XZ.'                                                             ",
"                                                                        vX1.4.e.,.cXy.r.r.y.q.1.q.0.w._ B ' !.@X.X^ a                                                               ",
"                                                                        [.#.1.-.V q.@.+.:.:.0 cXgX;.y.q.'.5.w N f 5 BX                                                              ",
"                                                                        #.V $.$.#.C C #.#.#.N 2.$.+.:.0.1.0.nX;.#.V jX                                                              ",
"                                                                        jX0 N 5 j B A A j j a g _ $.,.@.O.y.fXO.q.q.&.9.                                                            ",
"                                                                          N X < M.T.)./.T.E.E.M.A f f C ,.V C $.1.9.7.t.t.                                                          ",
"                                      q V ;.                                j j _.,X1X1X1X1X3X,X3X9X,XM.j B B [ $.) sXGX#.                                                          ",
"                                      e fXdX1.w.                            W.Y.^.(.D.V.V.g.d.B.(.6X<X XE.| A A B N @.1._ jX                                                        ",
"                                      4.@.jXcXjX-.                          } ~.N.p.a.h.h.h.z.p.m.tX_.N.T.] T.N.] j B B M 2.                                                        ",
"                                        0 #.fXNXNX&.                      '.f S b.f.V.l.z.z.l.a.D.3X4X,XN.b.x `.`.N.i g <.( `                                                       ",
"      9.Q               ].[ (           9 q 0 fXNXcXO.                  { ] N.l d.z b a.m m m b (.1XtXv n N.i T.`.B.b.&X2X).s B                                                     ",
"    sXq.sXr.          N B ' ' u       jX9 V V e nXSXdX1.                A b.b.x b./ z i i i l N.*XqX=Xz d.b.x ] `.d.G.=X9X] N.@X} zX                                                ",
"    9.bXy.-.        <.B <.{ ] g BX  q.e &.-.#.t 9.NXDXO.                B g g u n / / D.n.b D.%X*X-X<X(.(.A.s ] /.m.F.|. X/ 4X3XOX} kX                                              ",
"  w.gXvX&.@.        5.[ [ A A j _ o.V -.-.-.=.o.r gXDXbX;.              zXg { MXAXmX9X8X4X/.(.*X-XwXG.%X<XG.s A./.F.F.(.n.n.9X9XR.5 5 N _                                           ",
"  1.NX[.e 0 dX      XXM f f g f 0 t ;.-.=.&.:.;.t r.vXFX-.                M.2X9XtX1X*X<X&XF.*X1X3XA.z z p.c c G.G.|.D.A.^ Y.Y.d < E E 8 7 4 w 4.                                    ",
"sX[.NX1.q V V V ) $.C N C _ >.2.&.V &.-.=.=.:.+.i.=.lXFXoXgX              { 4X1X=X=XF.%X(.d. X,XA.m V.f.p.a.h.z.f./ / ^ a < d 8 E 6 E 8 ~ h 3 5 5 N                                 ",
"&.lXSX+.0 -.-.@.@.&.e &.1.9.1.0.t.r +.0.=.7.%.;.O.r gXDXnXsX              ,.M._././ m d.b z n m b z.v.x.P.k.c.z.b s h 3 3 3 G I R H U 3 < < a j g a B                               ",
"V ZXbX) o.-.&.;.;.-.e &.r.:.:.*.r.+.o.t.:.%.:.*.%.r hXvXZXsX              [ u i l z c c p.a.i v V.c.j.K.J.J.P.z.v d w 7 7 U Y Y I 3 < ! E.@X2X,X3X2XT.g W.                          ",
"V   bXO.o.:.*.=.=.1.V V 0.6.*.6.0.-.r 0.;.=.*.*.%.r aXvXSX[.            Y.] m.a.f.f.l.l.v.c.d.l a.c.L.J.K.K.v.V.d U w 7 7 T F G 3 k .X8X8XtX1XtXrX5X<X_.] A                         ",
")     @.r :.*.:.=.4.#.0 0.8.6.6.:.9.r =.0.=.*.6.-.t aXbXNX[.            s m.f.p.p.f.l.l.v.U.V.b c l.L.J.J.J.x.z.d I w 7 7 T F G ^  X8XqXrXrXeX6X-X>XwX*X_.S o ( (                   ",
"C     ;.e &.*.:.*.9.1.9 1.9.*.*.4.9.e @.e.9.7.%.@.t sXbXNXsX          f n b z i l x z c p.l.V.V.c f.x.L.j.J.P.f.< I 8 4 T T Y 3  .9X8X;XqXeXtX8XqX:X:X5X4X`./ ] T.{ ' <.            ",
")     y.t =.=.*.=.=.1.0 @.9.9.9.w.1.V e 1.4.0.q.1.V sXvXjXdX        3.a i l z d.d.m z z p p p.m.b a.c.L.j.k.c.s.< U 8 , T T J 3 S.9XqXqXqXqX8X8X8X;XrXqX<X|.D.d.&X9X2XY.B           ",
"1.    jX0 @.=.=.=.;.q.V 0 4.w.,.,.N 0 V #.) O.O._ w sXDXe.        oXOXs z s.l.z.z.l.h.g.a.c z b z p.c.L.j.c.c.z < U 3 , T H J 3  .1XqXrX:XqX8X8X;XqX:X:XrX&XF.G.%X5XeX3X!.B         ",
"jX    cX#.V -.=.*.:.0.#.0 N N f f B M SX    jXq q ) lXDX-.        5.#Xs f.C.x.x.L.L.x.c.z.f.c p l a.x.L.j.c.z.s d U < 3 T J J U k  X8X8XqX:XwX:X;X;X;X:XwX5XF.%X-XyX-XtX9XY.[       ",
"  0.    [.V @.=.;.r.&.V #._ B ' | { f         [.N {.vXy.[.      fXB n z z.P.K.J.J.J.J.j.c.c.l.p.c l.L.K.j.c.d.a d 8 , 8 Y J J T d Z.9X8XqX>X>X:XwX:XwXqX*XrX-X5X5XwXwX5X6X4X] '     ",
"    gX  cX#.V -.0.%.r fX  XXj M.M.] ' W.        V fXbX9         B ] / p.c.P.K.K.K.j.J.J.k.x.P.v.h.v.j.K.x.z.b < h 8 > U Y Y J T 8 < @X9X8XwX-X>X:X-XqXqXqX5XrX5XwX:X-XwX5XrX&X] '   ",
"    9.SXNXXXV @.+.r bX      B M.b./ ] M         O.gX-.        oX] ,X/ a.C.I.J.K.x.x.L.L.J.J.P.P.v.L.K.J.x.g.a 3 h , 2 Y F F H T 8 3 ! @X9XrXwX-XwXqXrX*X&X%X=XqX<XrX:X>X-XwX6X/.] mX",
"      9.SXcX9.e t 0.        { ] m b.] a         1.;.          g 4XeXm.z C.P.J.J.x.x.L.L.J.J.L.P.P.J.K.I.v.s.a 8 8 7 H J F F D R E , , ..,X9X*XrX6X6X&X(.F.G.%XqXeX8X:X:X>X>XqX%XM.+X",
"      e.1.SXvXq.@.-.        { S d.B.] A kX                  W.!.tX<X(.i g.c.J.J.P.P.L.K.K.K.L.P.L.J.K.x.g.z < 8 8 7 H J F F D R T , > < '  XtX1X4X|./.(.G.F.*XqXeX8XqX:X>X-XqX,XA.M.",
"        e.1.vXvXsX@.        W.A b.d.m ] }                 >.g ,XeX6X9Xs p.z.k.J.L.L.L.J.K.J.x.x.P.x.v.g.p.s d 8 7 6 J J J J F R 6 $ , > < o n N.D.D.N.d.s.F.:XwXqXqXqX-XwX-XeX,X^.n ",
"            9.dXnXq.jX      dXA m m.n.n a } M.Y.    sXV q f n 3XeX6X3Xi l s.h.h.z.z.z.v.k.j.k.v.h.l.g.p.v a h 7 7 T J J J J Y T 6 # = . , o s i l l z m.%XqX-XwXqXqX*XqXqX*XtX&X_.n ",
"              sX9.@.          B ] B./ n ' !.9X+X[ C e y 0 C ] 9X6X=X Xs s v s.f.s.f.f.g.h.h.h.h.g.f.s.v d 3 8 , 6 R Y J J J R I 1 : ; 4 > > ' n.v (.(.%XrXqX5X5X5XrXwXqX%X%X8X,X/.n ",
"                              M n b.n.b.k /.&X_.A C &.q q _ n 4X%X(./.k a a s x m m a.a.d.d.s.s.d.b s a 3 8 3 3 T Y F Y J J R 2 + * = = 4 X a A.z m.D.(.*X5XeXrX5XwXqX%XG.%X<X,X^.m ",
"                              2.n / m./ n ,XD.^.' 2.w.9 0 <.n /.(.F./.^ d d d a u u u i s s s s u a a h 8 1 , E R Y D Y J J T 1 # % ; = * > a /.s.z (.(.F.<XrX6XrX<X=XV.f.<XtX&X^./ ",
"                              +Xv v b / n ).n n N e.[.9 #.2.[ M.`.(.(.A.a d U E U 3 < h h a a a < d h E 1 1 W T R J Y R R 6 1 @ % ; % % % > o (.D.x n T./.(.=X=X=XF.m.s.%X7XtX_.A.M.",
"                            #X).).A.D.4Xn T.).<.#.dXgXO @.w.C g N.D.F.D.^ < R H H T 7 8 5 } !.R.! 3 3 , 7 6 W H L R R H 1 $ $ * % ; % $ = > a /.D.i g f ] A.D.D.B.m m _.9X3X2XT.] +X",
"                            !.2X9X,Xv d.n.g B [ sXgXgXo.r e.>.o x m.(.(.] o , 6 6 W 8 3 [ zXOX!.R.d 3 3 E T R K 6 2 1 $ # + + = ; ; & # = > a D.n.s [ _ f a s g j Y.#X2X).M.j j f #X",
"                          zXOX2X_./.^.^./ n <.kXfXhXhX%.r #.#.o ] l f.(.D.k , @ - H U < Q.| o a OX! 3 U 8 6 1 - - $ # + $ * & & ; ; & # % > o S.] g O V #._ M 5 f M o o f B _ ,.M 2.",
"                            ~.T.A.n./ s b.n B dXdXsXaX8.r V 1.5 Z.D.G.G.(.M.< > $ # 8 3 ..' s g E.Z.h , > # # # : + # + + & & & ; = & # * > o ] ] f O t 9 +.1.4.#.#.5.[.oX[.e.@.V e.",
"                            !.b.A.&X&Xv 3X] f [.[.u.iXiXt r 1.N ' /.F.G.F.A.d > $ # 3 < h ~.~.+XmXVXQ., 2 - # # # # $ $ * - & & & = # # * @ o ^ ' B V t t r t %.@.+.9.-.-.+.r e q bX",
"                            OX+X9X8X9Xx b.M.< 1.q.y.uXiX*.t O.2.f T.(.G.F./.d X @ 6 8 3 j ^ ).mX#X$X..< U H H P H 6 6 6 K R K 6 * @ $ # * % X j [ M -.%.%.O.t t 0 e 0 e O.4 O 9 0   ",
"                            ].2X9X<X=X(./.] j M y.u.u.uX8.+.0 ,.B A ^.(.F.^.d , , 7 W 3 R.@XVXVX| < > 8 U R J L H R R T T R L K 1 $ # # ; % X f B _ -.=.0.q.y.r.-.=.;.O.#.9.-.V 1.  ",
"                              ~. XD.m.m.v n n o w.y.r.r.r.+.9 5 >.f ] ^./.T.h X * w 8 8 } $XmX0X..3 ~ U I Y R J J L J H Y Y Y I 6 , # + ; = 4 5 N C &.:.9.y.y.y.uXhXgXdXsXy.1.0 dX  ",
"                              W.] d.m.D.b.+XM.o 1.;.;.:.%.+.0 q Z >.o ' | Y.h 4 * 6 U 3 d  .X.` ~ 3 U I R Y R H J J J J Y Y F G T $ # # * = X o 5 C 1.-.7.t.y.y.uXhXxXhXy.w.+.)     ",
"                                !.).3XtX^.n T.a N &.-.;.=.;.V q Z M f f zXSX4.. @ 6 E G 3 3 G 3 6 I T T R H P R J J J J Y F F F T - $ % + % X B B C $.-.r.uXuXiXaXxXhXhXuX7.V 4.    ",
"                                mX+X9X4X_.T.M.g f ,.#.@.O.t 9 q q Z '.      e.4 * 2 Y F U G I R T 6 1 H H - - P H J J J Y F F F K 6 * % + > < W.B B _ $.9.r.u.uXaXxXxXaXt.:.t       ",
"                                  [ ~.N.N.m v { o q 0 V 1.1.[.              XX4 * 2 D F G I T R H - # L P - # # 1 6 H R Y F F J L K & + * , o !.g j a B _ 4.0.r.pXsXsXy.0.o.=.      ",
"                                  '.B a n ] b.] B <.cX                      fXO @ 1 D Y Y R R R 6 # # R J P 1 + # * 6 T R Y J J H L # + * > o !.] T.M.n u f N >.,.5.5.1.O.0         ",
"                                    BXg ] b.b.{ B kX                          O @ 1 J J L L H H 1 # - H J J P - + @ , 7 T L J J J K * + @ > < | ] ,X3X XT.n.s u a u a 5 5 [.        ",
"                                      ].g { ' B '                             4 @ 1 P P K R Y H $ @ 1 J R J H K * @ @ 1 6 K J J L P $ + % , X < ' ,X9X<X3X,X_._.^./.T.Y.f kX        ",
"                                        5.,.5.                                4 * $ 6 $ # T T 1 $ + 1 R I Y H R 1 $ $ + - K R H R K * & ; ; > X < Z.2X9X,X8X8X<XeX<X3XM.s ].        ",
"                                                                              4 . 7 , + $ 6 2 , @ 1 1 I I Y R H H - # * # K H R R T * = = = > > < n / d.d.(.8X&X%X*XD.v ] <.        ",
"                                                                              4 4 4 % , , , , , @ $ 1 R R H H H L - : * + # 6 R Y Y $ * , , X o a H.H.g.b z z z z b x M.E.h         ",
"                                                                              +.. 4 4 5 ) ) ,.5.` 3 3 3 U U I W W W = % @ @ 7 8 U G > > , < a s d.F.F.F.(.A.n.M.A.S.E.OX3.h         ",
"                                                                                4.w.dX    zXC 3.Q.Y.} ! < 3 8 8 5 w O 4 4 < X < < a d !  .Z.A.D.D.D.D.N.] { <.3.<.<.[ <.5.          ",
"                                                                                            3.j Y.!.R.R.| ( h 5 oX[.{.5 f h h ( ' j a o j M.M.M.N.M.~.OX                            ",
"                                                                                  {._ [ } Q.( 3.'  .! X.3.` 8 $.      _ N ( } } ( B N h ].                                          ",
"                                                                                  M 2.].Q.' a Y.R...' h 3 5 8         ZX].( !  .| <.} N [.                                          ",
"                                                                                  N N <.W.R...' E.!.Y.' h _         5.} B j ' Z.R.!.3.N $.                                          ",
"                                                                                  oXN f ( 3.R.Y.Y.!.Y.( B zX    ,.,.,.5.Q.Y.Z.Z.R.R.3.` V                                           ",
"                                                                                      <.5 f [ | Q.W.} [ _       N _ 3.3.3.3.3.Y.....X.( 3                                           ",
"                                                                                          ` 5 N B ( B 5 5.      5 N ( ( ( ( ( ( ( ! h h < '.                                        ",
"                                                                                              <.,.} ,.5.        5.,._ _ ` _ ` ( ( _ [ ,.2.                                          ",
"                                                                                                                                                                                    ",
"                                                                                                                                                                                    "
};
