/* XPM */
static char *_a046a20b22444b282f5d2129efd458bAK1Wo3YI5im6XIFy[] = {
/* columns rows colors chars-per-pixel */
"50 50 127 2 ",
"   c None",
".  c #F6A70C",
"X  c #FEA60C",
"o  c #F6AE0C",
"O  c #FDA80C",
"+  c #EDA61A",
"@  c #FEA714",
"#  c #F4AE14",
"$  c #FBAC12",
"%  c #F2AC19",
"&  c #FAAE18",
"*  c #EBB51D",
"=  c #EBBB1B",
"-  c #F3B114",
";  c #FCB417",
":  c #F4B51D",
">  c #FCB61C",
",  c #F5B91F",
"<  c #FCB81E",
"1  c #ECAB2E",
"2  c #EEB626",
"3  c #EEBA22",
"4  c #EEB529",
"5  c #EDBA2A",
"6  c #F3B523",
"7  c #FDB722",
"8  c #F4BA23",
"9  c #FBB922",
"0  c #F2BB2C",
"q  c #E4AC31",
"w  c #F6C125",
"e  c #FDC62B",
"r  c #FDCA2B",
"t  c #F6C132",
"y  c #F9C734",
"u  c #FFCD32",
"i  c #FFCC39",
"p  c #FFD636",
"a  c #FED935",
"s  c #FFD63A",
"d  c #F7DA3E",
"f  c #FED93A",
"g  c #FABA4C",
"h  c #F7D442",
"j  c #FED541",
"k  c #F4DB43",
"l  c #FCD941",
"z  c #FDD841",
"x  c #FEDB41",
"c  c #FCD842",
"v  c #F8DA46",
"b  c #FFD945",
"n  c #FCDA45",
"m  c #FCDA42",
"M  c #FCD748",
"N  c #F9DD4B",
"B  c #FFDD4B",
"V  c #FED94C",
"C  c #FFDC4D",
"Z  c #FFDE4E",
"A  c #FFDF4E",
"S  c #FFDD4B",
"D  c #EDDB55",
"F  c #F6D456",
"G  c #FFDF50",
"H  c #FFDE51",
"J  c #FFDD53",
"K  c #FFDA54",
"L  c #FFDF54",
"P  c #FFDD57",
"I  c #FFDF56",
"U  c #FFDF57",
"Y  c #FFDE57",
"T  c #FEDB59",
"R  c #FFDC59",
"E  c #FFDE59",
"W  c #FFDD5B",
"Q  c #FCDE5C",
"!  c #FFDE5C",
"~  c #FFDE5D",
"^  c #FFDF5D",
"/  c #FFDC5E",
"(  c #FFDE5F",
")  c #FFDD5D",
"_  c #FFE054",
"`  c #FFE056",
"'  c #FEE153",
"]  c #F5E25F",
"[  c #FFE05B",
"{  c #FFE35B",
"}  c #FAE25E",
"|  c #FEE05C",
" . c #FEE05E",
".. c #FFE05F",
"X. c #FEE15F",
"o. c #FFE15F",
"O. c #FEE35E",
"+. c #FFE55C",
"@. c #FFE45F",
"#. c #FDE25D",
"$. c #FFDF61",
"%. c #FDDF63",
"&. c #FEDE63",
"*. c #FAE361",
"=. c #F9E163",
"-. c #FAE363",
";. c #FDE060",
":. c #FFE160",
">. c #FFE061",
",. c #FEE161",
"<. c #FDE261",
"1. c #FDE062",
"2. c #FDE163",
"3. c #FEE163",
"4. c #F9E562",
"5. c #FCE460",
"6. c #F8E364",
"7. c #FAE264",
"8. c #FBE264",
"9. c #FBE166",
"0. c #FEE064",
"q. c #FEE066",
"w. c #FDE263",
"e. c #FBE168",
"r. c #F6E275",
"t. c #F4E377",
"y. c #F5E17E",
/* pixels */
"                                                                                                    ",
"                                                                                                    ",
"                                                                                                    ",
"                                                                                                    ",
"                                                                                                    ",
"                                                                                                    ",
"                                                                                                    ",
"                                                                                                    ",
"                                                                                                    ",
"                                                                                                    ",
"                                                                                                    ",
"                                                                                                    ",
"                                                                                                    ",
"                                                                                                    ",
"                                                                                                    ",
"                                        k O.%.0.> $ O O O $                                         ",
"                                        f a n O.> < < > O X                                         ",
"                                      D s f f a 8 < < > , $                                         ",
"                                  t.y.K I $ X ` ( R I # O X 1 1 q                                   ",
"                                  f s +.6.9 8 f f { O.; 7 , O O X                                   ",
"                                t.f f f l 9 u f f a l 6 > < 9 > X                                   ",
"                                d f s f f i f s p p f j > ; > > 9                                   ",
"                            f v 1.( : < f M -.O.> 9 f c 1.-.9 < ; O X @                             ",
"                            f f f { 7 e f f f ` , 9 f f f I 6 7 < < > O                             ",
"                          p s s s f i f s f s f j f s s s f n > < < 7 <                             ",
"                      n R -.4.< > d 1.-.] 7 7 d +.e.1.< > f N 6.1.6 > $ X O O                       ",
"                      a f f 1.7 w f f a } 9 9 a f f 1.> < f f f O.H < < < $ O                       ",
"                    c f s f s 0 f f f f f 8 s d s f f t 9 d f f p I > > < < 7 +                     ",
"                T 6.( 1.> O B 1.O.O.> . Z %.O.R > O l ( { ( > X j 1.%.( 7 O X O @ @                 ",
"                p a I 0.< , f f H 1.7 , f f Z 6., : s a Z 5.7 < f f V 1.6 < > > X X                 ",
"              h f f f l 8 p d f f j 8 s f f f d 0 r f f f j 0 8 f f f f H > > > 7 $                 ",
"              4 5 - - 2 8 3 2 - & 3 2 3 * # ; 6 8 8 3 # - = 5 3 3 o # 3 5 : : # $ & %               ",
"          f c O.O.> 9 f f 1.0.> : f d O.} > , f f 1.{ 9 7 f a ` 6.4 > f f I 1.t < < $ O X           ",
"        F f f f I < p f f a ' 9 u f f a Z < r f f a Z , 7 f f f d ( > s f f s 1.9 < < < O g         ",
"        a f f f f y f f f f f s f f f f f j x f f f f B 8 f f f f f 8 f f f f l 8 8 9 8 7 >         ",
"                                                                                                    ",
"                                                                                                    ",
"                                                                                                    ",
"                                                                                                    ",
"                                                                                                    ",
"                                                                                                    ",
"                                                                                                    ",
"                                                                                                    ",
"                                                                                                    ",
"                                                                                                    ",
"                                                                                                    ",
"                                                                                                    ",
"                                                                                                    ",
"                                                                                                    ",
"                                                                                                    "
};
